<?xml version="1.0" encoding="utf-8"?>
<!-- Generator: Adobe Illustrator 16.0.0, SVG Export Plug-In . SVG Version: 6.00 Build 0)  -->
<!DOCTYPE svg PUBLIC "-//W3C//DTD SVG 1.1//EN" "http://www.w3.org/Graphics/SVG/1.1/DTD/svg11.dtd">
<svg version="1.1" id="Слой_1" xmlns="http://www.w3.org/2000/svg" xmlns:xlink="http://www.w3.org/1999/xlink" x="0px" y="0px"
	 width="240px" height="240px" viewBox="0 0 240 240" enable-background="new 0 0 240 240" xml:space="preserve">
<g>
	<path fill="#1D1D1B" d="M38.606,151.786c1.975,1.832,3.447,3.967,4.414,6.418c0.969,2.453,1.453,5.229,1.453,8.334
		c0,5.852-1.866,10.658-5.591,14.428c-1.902,1.9-4.15,3.305-6.745,4.221c-2.599,0.914-5.524,1.369-8.777,1.369H8.282v-40.143h14.697
		c3.249,0,6.176,0.445,8.772,1.316C34.345,148.604,36.629,149.962,38.606,151.786z M34.274,177.343
		c2.888-2.707,4.332-6.307,4.332-10.805c0-4.49-1.425-8.113-4.276-10.854c-2.852-2.742-6.728-4.115-11.627-4.115H13.93v29.83h8.665
		C27.492,181.399,31.385,180.05,34.274,177.343z"/>
</g>
<g>
	<path fill="#1D1D1B" d="M143.272,151.786c4.098,3.988,6.145,8.883,6.145,14.703c0,5.773-2.047,10.652-6.145,14.641
		c-4.054,3.943-9.066,5.92-15.024,5.92c-6.029,0-11.061-1.957-15.082-5.869c-4.055-3.949-6.083-8.848-6.083-14.691
		c0-5.854,2.01-10.736,6.03-14.645c4.06-3.947,9.106-5.924,15.135-5.924C134.172,145.921,139.179,147.876,143.272,151.786z
		 M139.05,177.179c3-3,4.499-6.559,4.499-10.689c0-4.133-1.498-7.703-4.499-10.695c-2.96-2.963-6.562-4.441-10.802-4.441
		c-4.275,0-7.896,1.479-10.857,4.441c-2.96,2.961-4.439,6.521-4.439,10.695c0,4.197,1.462,7.766,4.383,10.689
		c2.963,2.961,6.601,4.443,10.914,4.443C132.489,181.622,136.09,180.14,139.05,177.179z"/>
</g>
<g>
	<path fill="#1D1D1B" d="M98.68,149.263c1.245,0.99,2.167,2.207,2.769,3.654c0.603,1.441,0.903,3.055,0.903,4.85
		c0,1.752-0.307,3.342-0.928,4.771c-0.621,1.426-1.575,2.65-2.85,3.674c-2.454,1.906-5.723,2.85-9.818,2.85h-6.032v17.494h-5.648
		v-40.143h12.008c1.975,0,3.773,0.24,5.401,0.717C96.111,147.603,97.51,148.319,98.68,149.263z M94.569,162.265
		c0.619-0.516,1.105-1.135,1.455-1.865c0.348-0.736,0.521-1.627,0.521-2.689c0-0.988-0.167-1.844-0.497-2.574
		c-0.327-0.73-0.805-1.352-1.422-1.865c-0.698-0.549-1.513-0.971-2.44-1.26c-0.932-0.295-2.039-0.441-3.319-0.441h-6.141v12.34
		h5.867C91.261,163.909,93.254,163.36,94.569,162.265z"/>
</g>
<g>
	<path fill="#1D1D1B" d="M72.695,181.399v5.156H49.058v-40.143H72.31v5.156H54.706v12.229h17.112v5.154H54.706v12.447H72.695z"/>
</g>
<path fill="#675DC5" d="M5.694,153.749C2.563,151.944,0,153.419,0,157.038v14.023c0,3.619,2.563,5.098,5.694,3.283l12.149-7.006
	c3.13-1.811,3.13-4.771,0-6.574L5.694,153.749z"/>
<path fill="#12CFE3" d="M140.556,164.985l6.791-3.922c1.747-1.012,1.747-2.666,0-3.672l-6.791-3.92
	c-1.748-1.008-3.179-0.189-3.179,1.838v7.838C137.377,165.169,138.808,165.995,140.556,164.985z"/>
<g>
	<path fill="#1D1D1B" d="M8.277,220.153v-25.695h5.895v1.773h-3.673v22.154h3.673v1.768H8.277z"/>
	<path fill="#1D1D1B" d="M26.375,212.587v3.127c-1.394,0.801-2.745,1.197-4.058,1.197c-1.791,0-3.363-0.676-4.709-2.02
		c-1.347-1.348-2.02-2.908-2.02-4.678c0-2.014,0.67-3.684,2.012-5.008c1.343-1.328,3.026-1.99,5.049-1.99
		c1.204,0,2.447,0.309,3.727,0.941v3.051c-1.375-0.881-2.674-1.324-3.9-1.324c-1.133,0-2.124,0.402-2.975,1.195
		c-0.846,0.799-1.268,1.732-1.268,2.801c0,1.209,0.395,2.221,1.192,3.047c0.799,0.822,1.771,1.232,2.925,1.232
		C23.523,214.159,24.866,213.634,26.375,212.587z"/>
	<path fill="#1D1D1B" d="M28.312,210.005c0-1.771,0.699-3.348,2.097-4.721c1.402-1.379,3.005-2.068,4.822-2.068
		c1.866,0,3.495,0.676,4.889,2.035c1.394,1.359,2.091,2.939,2.091,4.754c0,1.828-0.685,3.432-2.051,4.822
		c-1.37,1.389-2.949,2.084-4.741,2.084c-1.919,0-3.586-0.689-4.994-2.059C29.012,213.479,28.312,211.864,28.312,210.005z
		 M39.568,210.015c0-1.1-0.418-2.059-1.256-2.873c-0.837-0.814-1.834-1.227-2.987-1.227c-1.188,0-2.204,0.416-3.061,1.238
		c-0.854,0.824-1.281,1.814-1.281,2.953c0,1.096,0.432,2.055,1.299,2.871c0.862,0.818,1.875,1.232,3.042,1.232
		c1.131,0,2.123-0.426,2.972-1.264C39.144,212.106,39.568,211.13,39.568,210.015z"/>
	<path fill="#1D1D1B" d="M44.887,216.55v-12.973h2.703v1.996c0.639-0.818,1.25-1.416,1.833-1.793
		c0.579-0.381,1.249-0.564,2.004-0.564c0.985,0,1.759,0.213,2.32,0.645c0.56,0.428,1.034,1.119,1.425,2.055
		c0.682-0.936,1.342-1.627,1.979-2.055c0.637-0.432,1.376-0.645,2.219-0.645c1.031,0,1.921,0.383,2.668,1.154
		c0.745,0.77,1.123,1.686,1.123,2.742v9.438h-2.741v-8.732c0-1.43-0.708-2.15-2.128-2.15c-0.81,0-1.494,0.369-2.059,1.1
		c-0.563,0.736-0.844,1.641-0.844,2.723v7.061h-2.735v-8.363c0-1.701-0.699-2.553-2.094-2.553c-0.827,0-1.529,0.35-2.105,1.041
		c-0.579,0.693-0.866,1.547-0.866,2.563v7.313H44.887z"/>
	<path fill="#1D1D1B" d="M69.701,203.577v2.609c1.309-1.979,2.982-2.971,5.025-2.971c1.674,0,3.114,0.668,4.326,2
		c1.208,1.34,1.813,2.936,1.813,4.789c0,1.879-0.613,3.502-1.84,4.861c-1.223,1.365-2.667,2.045-4.332,2.045
		c-0.964,0-1.887-0.254-2.773-0.756c-0.885-0.496-1.614-1.232-2.188-2.184v8.664h-2.737v-19.059H69.701z M78.005,210.005
		c0-1.141-0.43-2.137-1.289-2.99c-0.857-0.861-1.87-1.283-3.029-1.283c-1.183,0-2.206,0.422-3.069,1.271
		c-0.864,0.852-1.296,1.854-1.296,3.002c0,1.186,0.428,2.219,1.279,3.088c0.856,0.867,1.862,1.301,3.024,1.301
		c1.202,0,2.234-0.424,3.091-1.287C77.575,212.245,78.005,211.212,78.005,210.005z"/>
	<path fill="#1D1D1B" d="M83.916,203.577h2.737v7.307c0,2.258,0.991,3.387,2.975,3.387c0.878,0,1.576-0.301,2.088-0.906
		c0.513-0.602,0.773-1.428,0.773-2.48v-7.307h2.702v7.75c0,1.625-0.527,2.965-1.588,4.01c-1.057,1.049-2.411,1.574-4.056,1.574
		c-1.678,0-3.033-0.525-4.073-1.574c-1.037-1.045-1.559-2.414-1.559-4.104V203.577z"/>
	<path fill="#1D1D1B" d="M99.375,199.802h2.737v3.775h2.707v2.5h-2.707v10.473h-2.737v-10.473h-2.153v-2.537h2.153V199.802z"/>
	<path fill="#1D1D1B" d="M120.181,210.591h-11.07c0.238,1.33,0.789,2.303,1.645,2.916c0.853,0.613,1.783,0.918,2.788,0.918
		c1.555,0,2.853-0.646,3.902-1.934l1.998,1.512c-1.499,1.941-3.507,2.908-6.024,2.908c-1.93,0-3.544-0.662-4.843-1.98
		c-1.301-1.324-1.951-2.963-1.951-4.926c0-1.834,0.657-3.422,1.974-4.771c1.315-1.35,2.924-2.018,4.819-2.018
		c1.868,0,3.466,0.684,4.797,2.051C119.546,206.636,120.202,208.407,120.181,210.591z M109.394,208.405h7.926
		c-0.88-1.779-2.178-2.674-3.901-2.674C111.542,205.731,110.2,206.626,109.394,208.405z"/>
	<path fill="#1D1D1B" d="M126.381,203.577v2.674c0.606-1.072,1.198-1.844,1.782-2.324c0.583-0.477,1.338-0.711,2.271-0.711
		c0.264,0,0.64,0.061,1.131,0.184l-0.833,2.738c-0.521-0.102-0.869-0.154-1.034-0.154c-0.923,0-1.696,0.32-2.322,0.971
		c-0.623,0.645-0.935,1.443-0.935,2.408v7.188h-2.74v-12.973H126.381z"/>
	<path fill="#1D1D1B" d="M141.882,205.118l-1.824,1.602c-0.472-0.332-0.879-0.588-1.225-0.762c-0.345-0.174-0.755-0.26-1.227-0.26
		c-1.109,0-1.667,0.41-1.667,1.229c0,0.584,0.706,1.16,2.115,1.713c1.412,0.549,2.424,1.158,3.042,1.814
		c0.62,0.662,0.93,1.457,0.93,2.389c0,1.09-0.448,2.039-1.337,2.854c-0.892,0.809-1.941,1.215-3.147,1.215
		c-1.837,0-3.338-0.852-4.513-2.547l2.155-1.039c0.755,0.734,1.544,1.1,2.358,1.1c0.566,0,1.06-0.154,1.486-0.457
		c0.427-0.316,0.639-0.672,0.639-1.082c0-0.723-0.747-1.375-2.234-1.951c-1.492-0.578-2.522-1.164-3.091-1.756
		c-0.571-0.594-0.856-1.324-0.856-2.193c0-1.078,0.406-1.975,1.219-2.691s1.832-1.078,3.058-1.078
		C138.99,203.216,140.362,203.847,141.882,205.118z"/>
	<path fill="#1D1D1B" d="M149.487,194.458v25.695h-5.891v-1.768h3.673v-22.154h-3.673v-1.773H149.487z"/>
</g>
<path fill="#099143" d="M124.707,136.112l-12.143,7.014c-3.133,1.809-3.133,4.762,0,6.57l12.147,7.014
	c3.129,1.805,5.691,0.334,5.691-3.281v-14.025C130.402,135.79,127.84,134.306,124.707,136.112z"/>
<g>
	<path fill="none" d="M239.671,69.97v1.713c0,1.996-1.413,2.809-3.142,1.814l-6.699-3.859c-1.726-1.008-1.726-2.637,0-3.633
		l6.699-3.867c0.619-0.355,1.191-0.469,1.676-0.393c-0.452-1.797-0.992-3.555-1.609-5.279c-0.022-0.012-0.044-0.02-0.067-0.033
		l-6.699-3.869c-1.726-0.996-1.726-2.631,0-3.625l2.645-1.525c-0.201-0.35-0.401-0.707-0.605-1.053l-2.641,1.521
		c-1.724,1-3.137,0.182-3.137-1.811v-7.73c0-0.037,0.009-0.07,0.009-0.105c-1.188-1.404-2.439-2.756-3.752-4.043
		c-0.167,0.477-0.562,0.922-1.195,1.291l-6.699,3.867c-1.73,0.998-3.143,0.182-3.143-1.814v-7.734c0-1.986,1.413-2.811,3.143-1.811
		l2.141,1.236c-3.85-2.908-8.071-5.363-12.577-7.262l2.359,1.361c1.729,0.996,1.729,2.629,0,3.625l-6.7,3.867
		c-1.724,0.996-3.138,0.178-3.138-1.813v-7.738c0-0.748,0.2-1.328,0.538-1.713c-1.754-0.49-3.539-0.9-5.355-1.23
		c-0.048,0.031-0.08,0.063-0.135,0.09l-6.693,3.871c-1.728,0.998-3.141,0.182-3.141-1.811V17.38
		c-0.197-0.008-0.388-0.016-0.586-0.016c-0.204,0-0.409,0.016-0.617,0.016v3.096c0,1.992-1.409,2.809-3.134,1.811l-6.703-3.871
		c-0.045-0.027-0.08-0.057-0.121-0.084c-1.816,0.328-3.6,0.74-5.353,1.232c0.338,0.381,0.536,0.961,0.536,1.705v7.738
		c0,1.99-1.412,2.809-3.139,1.813l-6.702-3.867c-1.724-0.996-1.724-2.629,0-3.625l2.293-1.322c-3.684,1.557-7.168,3.496-10.422,5.74
		c1.471-0.551,2.599,0.279,2.599,2.057v7.734c0,1.996-1.411,2.813-3.137,1.814l-6.7-3.867c-0.452-0.26-0.78-0.568-0.996-0.895
		c-1.175,1.18-2.29,2.408-3.366,3.682c0,0.023,0.007,0.043,0.007,0.07v7.73c0,1.992-1.412,2.811-3.138,1.813l-2.615-1.51
		c-0.202,0.346-0.403,0.691-0.599,1.045l2.61,1.51c1.729,0.996,1.729,2.629,0,3.619l-6.696,3.869
		c-0.009,0.006-0.014,0.006-0.02,0.008c-0.62,1.734-1.165,3.512-1.622,5.313c0.481-0.063,1.039,0.051,1.642,0.4l6.696,3.867
		c1.729,0.996,1.729,2.625,0,3.633l-6.696,3.859c-1.724,0.994-3.139,0.182-3.139-1.814v-1.416c-0.194,1.949-0.293,3.924-0.293,5.924
		c0,2.002,0.1,3.979,0.293,5.926v-1.33c0-1.99,1.415-2.803,3.139-1.813l6.696,3.867c1.729,0.998,1.729,2.629,0,3.627l-6.696,3.871
		c-0.595,0.34-1.144,0.455-1.619,0.395c0.459,1.807,1.006,3.582,1.632,5.318l6.684,3.859c1.729,0.996,1.729,2.625,0,3.627
		l-2.576,1.49c0.198,0.348,0.401,0.699,0.608,1.047l2.571-1.484c1.727-0.994,3.14-0.178,3.14,1.814v7.717
		c1.181,1.396,2.424,2.74,3.73,4.02c0.192-0.424,0.559-0.82,1.129-1.15l6.697-3.869c0.46-0.266,0.889-0.389,1.284-0.416
		c1.138-0.109,1.946,0.721,1.946,2.227v7.736c0,1.502-0.8,2.33-1.933,2.227c-0.399-0.018-0.831-0.146-1.297-0.41l-0.964-0.561
		c3.313,2.391,6.887,4.447,10.668,6.113l-1.541-0.893c-1.724-0.996-1.724-2.627,0-3.621l6.702-3.867
		c1.727-0.996,3.139-0.184,3.139,1.813v7.732c0,0.703-0.181,1.248-0.484,1.631c1.771,0.492,3.572,0.908,5.405,1.238
		c0.009-0.006,0.013-0.012,0.017-0.014l6.703-3.873c1.725-0.994,3.134-0.178,3.134,1.818v3c0.208,0,0.414,0.016,0.617,0.016
		c0.198,0,0.389-0.016,0.586-0.016v-3c0-1.996,1.413-2.813,3.141-1.818l6.693,3.873c0.016,0.002,0.019,0.008,0.031,0.016
		c1.835-0.324,3.639-0.742,5.411-1.234c-0.303-0.381-0.489-0.934-0.489-1.637v-7.732c0-1.996,1.415-2.809,3.138-1.813l6.7,3.867
		c1.729,0.994,1.729,2.625,0,3.621l-1.634,0.943c4.014-1.756,7.797-3.945,11.28-6.514l-1.569,0.908
		c-1.73,0.994-3.143,0.184-3.143-1.814v-7.736c0-1.99,1.413-2.807,3.143-1.811l6.699,3.871c0.604,0.348,0.981,0.777,1.163,1.227
		c1.321-1.295,2.582-2.654,3.776-4.068l-0.001-0.016v-7.73c0-1.998,1.413-2.809,3.137-1.814l2.601,1.5
		c0.207-0.348,0.406-0.703,0.604-1.049l-2.604-1.508c-1.726-0.998-1.726-2.627,0-3.623l6.699-3.869
		c0.011-0.006,0.023-0.006,0.03-0.012c0.623-1.732,1.165-3.498,1.625-5.299c-0.481,0.07-1.044-0.047-1.655-0.393l-6.699-3.871
		c-1.726-0.998-1.726-2.629,0-3.627l6.699-3.867c1.729-0.99,3.142-0.178,3.142,1.813v1.625C239.885,80.366,240,78.29,240,76.19
		C240,74.095,239.885,72.017,239.671,69.97z M225.995,55.417c0-1.996,1.412-2.813,3.135-1.813l6.705,3.867
		c1.724,1,1.724,2.627,0,3.621l-6.705,3.869c-1.723,0.998-3.135,0.186-3.135-1.807V55.417z M215.054,40.39l6.698-3.865
		c1.728-0.996,3.141-0.18,3.141,1.816v7.73c0,1.992-1.413,2.811-3.141,1.811l-6.698-3.863
		C213.329,43.022,213.329,41.392,215.054,40.39z M211.32,46.882c0-1.99,1.412-2.803,3.14-1.811l6.696,3.867
		c1.724,0.994,1.724,2.629,0,3.625l-6.696,3.869c-1.729,0.996-3.14,0.184-3.14-1.816V46.882z M200.282,31.858l6.697-3.867
		c1.727-1,3.137-0.176,3.137,1.811v7.734c0,1.996-1.411,2.813-3.137,1.814l-6.697-3.867
		C198.556,34.485,198.556,32.856,200.282,31.858z M185.503,23.327l6.695-3.869c1.726-0.994,3.14-0.182,3.14,1.811v7.738
		c0,1.99-1.414,2.809-3.137,1.813l-6.698-3.867C183.775,25.956,183.775,24.323,185.503,23.327z M181.763,29.802
		c0-1.986,1.411-2.811,3.137-1.811l6.697,3.867c1.728,0.998,1.728,2.627,0,3.625l-6.697,3.867c-1.727,0.998-3.137,0.182-3.137-1.814
		V29.802z M180.551,29.802v7.734c0,1.996-1.409,2.813-3.134,1.814l-6.703-3.867c-1.721-0.998-1.721-2.627,0-3.625l6.703-3.867
		C179.142,26.991,180.551,27.815,180.551,29.802z M166.979,21.269c0-1.992,1.408-2.805,3.136-1.811l6.7,3.869
		c1.728,0.996,1.728,2.629,0,3.625l-6.7,3.867c-1.729,0.996-3.136,0.178-3.136-1.813V21.269z M151.599,29.802
		c0-1.986,1.417-2.811,3.145-1.811l6.696,3.867c1.725,0.998,1.725,2.627,0,3.625l-6.696,3.867c-1.728,0.998-3.145,0.182-3.145-1.814
		V29.802z M151.003,46.882v7.734c0,2-1.413,2.813-3.146,1.816l-6.694-3.869c-1.726-0.996-1.726-2.631,0-3.625l6.694-3.867
		C149.59,44.079,151.003,44.892,151.003,46.882z M137.42,38.341c0-1.996,1.417-2.813,3.142-1.816l6.699,3.865
		c1.727,1.002,1.727,2.633,0,3.629l-6.699,3.863c-1.725,1-3.142,0.182-3.142-1.811V38.341z M137.42,55.417
		c0-1.996,1.417-2.813,3.142-1.813l6.699,3.867c1.727,1,1.727,2.627,0,3.621l-6.699,3.869c-1.725,0.998-3.142,0.186-3.142-1.807
		V55.417z M133.077,64.962l-6.696-3.869c-1.73-0.994-1.73-2.621,0-3.621l6.696-3.867c1.727-1,3.14-0.184,3.14,1.813v7.738
		C136.217,65.147,134.803,65.96,133.077,64.962z M136.217,97.056c0,1.996-1.414,2.809-3.14,1.811l-6.696-3.865
		c-1.73-0.996-1.73-2.629,0-3.625l6.696-3.869c1.727-0.994,3.14-0.18,3.14,1.818V97.056z M136.225,80.108
		c0,1.99-1.414,2.801-3.135,1.809l-6.7-3.867c-1.728-0.994-1.728-2.629,0-3.625l6.7-3.867c1.721-0.992,3.135-0.184,3.135,1.809
		V80.108z M147.261,112.085l-6.699,3.863c-1.725,0.998-3.142,0.186-3.142-1.813l0,0v-7.73l0,0c0-1.115,0.449-1.838,1.134-2.107
		c0.549-0.215,1.246-0.148,2.008,0.293l2.011,1.162l4.688,2.703c0.647,0.373,1.052,0.836,1.212,1.326
		C148.744,110.591,148.342,111.458,147.261,112.085z M137.42,97.056v-7.73c0-1.998,1.417-2.813,3.142-1.818l6.699,3.869
		c1.727,0.996,1.727,2.629,0,3.625l-6.699,3.865C138.837,99.864,137.42,99.052,137.42,97.056z M151.003,105.589
		c0,1.996-1.413,2.811-3.146,1.814l-6.694-3.869c-1.726-0.998-1.726-2.627,0-3.623l6.694-3.869c1.733-0.998,3.146-0.182,3.146,1.814
		V105.589z M162.04,120.614l-6.702,3.869c-0.455,0.26-0.89,0.391-1.284,0.412c-1.136,0.107-1.939-0.719-1.939-2.227v-7.736
		c0-1.498,0.799-2.33,1.928-2.227c0.397,0.018,0.835,0.148,1.295,0.416l6.702,3.871C163.763,117.987,163.763,119.622,162.04,120.614
		z M176.814,129.146l-6.7,3.869c-1.729,0.998-3.136,0.184-3.136-1.813v-7.732c0-1.996,1.408-2.809,3.136-1.813l6.7,3.867
		C178.542,126.519,178.542,128.149,176.814,129.146z M180.551,122.669c0,1.998-1.409,2.809-3.134,1.814l-6.703-3.869
		c-1.721-0.992-1.721-2.627,0-3.621l6.703-3.871c1.725-0.996,3.134-0.18,3.134,1.811V122.669z M181.763,122.669v-7.736
		c0-1.99,1.411-2.807,3.137-1.811l6.697,3.871c1.728,0.994,1.728,2.629,0,3.621l-6.697,3.869
		C183.174,125.478,181.763,124.667,181.763,122.669z M195.339,131.202c0,1.996-1.414,2.811-3.14,1.813l-6.695-3.869
		c-1.729-0.996-1.729-2.627,0-3.621l6.698-3.867c1.723-0.996,3.137-0.184,3.137,1.813V131.202z M210.117,122.669
		c0,1.998-1.411,2.809-3.137,1.814l-6.697-3.869c-1.726-0.992-1.726-2.627,0-3.621l6.697-3.871c1.727-0.996,3.137-0.18,3.137,1.811
		V122.669z M211.32,105.589v-7.732c0-1.996,1.412-2.813,3.14-1.814l6.696,3.869c1.724,0.996,1.724,2.625,0,3.623l-6.696,3.869
		C212.731,108.399,211.32,107.585,211.32,105.589z M224.893,114.136c0,1.998-1.413,2.811-3.141,1.813l-6.698-3.863
		c-1.725-0.998-1.725-2.631,0-3.627l6.698-3.867c1.728-0.994,3.141-0.184,3.141,1.814V114.136z M224.896,97.056
		c0,1.996-1.412,2.809-3.142,1.811l-6.693-3.865c-1.728-0.996-1.728-2.629,0-3.625l6.693-3.869c1.73-0.994,3.142-0.18,3.142,1.818
		V97.056z M224.896,80.108c0,1.99-1.412,2.801-3.137,1.809l-5.704-3.289c-0.029,0.402-0.051,0.811-0.094,1.211l5.195,3.002
		c1.724,0.998,1.724,2.629,0,3.627l-6.696,3.871c-0.539,0.307-1.038,0.426-1.482,0.402c-0.91,1.984-1.999,3.867-3.248,5.631
		c0.241,0.375,0.387,0.863,0.387,1.484v7.732c0,1.996-1.411,2.811-3.137,1.814l-5.162-2.986c-0.357,0.27-0.72,0.525-1.09,0.777
		l5.651,3.262c1.729,0.998,1.729,2.631,0,3.629l-6.7,3.863c-1.724,0.998-3.138,0.186-3.138-1.813v-6.52
		c-0.396,0.191-0.797,0.373-1.202,0.555v5.965c0,1.998-1.414,2.811-3.137,1.813l-6.698-3.863c-0.533-0.309-0.88-0.684-1.085-1.072
		c-1.071,0.096-2.153,0.154-3.25,0.154c-1.103,0-2.194-0.059-3.27-0.156c-0.204,0.391-0.555,0.766-1.084,1.074l-6.7,3.863
		c-1.729,0.998-3.136,0.186-3.136-1.813v-5.977c-0.403-0.18-0.806-0.361-1.202-0.557v6.533c0,1.998-1.412,2.811-3.139,1.813
		l-6.702-3.863c-1.724-0.998-1.724-2.631,0-3.627l5.666-3.271c-0.368-0.25-0.727-0.51-1.085-0.773l-5.174,2.99
		c-1.726,0.996-3.141,0.182-3.141-1.814v-7.732c0-0.629,0.15-1.125,0.401-1.496c-1.251-1.76-2.336-3.645-3.243-5.627
		c-0.47,0.053-1.007-0.064-1.587-0.395l-6.697-3.871c-1.729-0.998-1.729-2.629,0-3.627l5.298-3.057
		c-0.039-0.404-0.067-0.813-0.093-1.223l-5.813,3.355c-1.722,0.992-3.137,0.182-3.137-1.809v-7.742c0-1.992,1.415-2.801,3.137-1.809
		l5.805,3.35c0.028-0.406,0.051-0.82,0.095-1.225l-5.292-3.045c-1.729-1.008-1.729-2.637,0-3.633l6.697-3.867
		c0.562-0.322,1.089-0.438,1.545-0.4c0.911-1.998,1.998-3.896,3.252-5.67c-0.228-0.369-0.369-0.848-0.369-1.451v-7.734
		c0-1.99,1.415-2.803,3.141-1.811l5.099,2.947c0.362-0.266,0.723-0.525,1.093-0.775l-5.599-3.225c-1.724-0.996-1.724-2.627,0-3.629
		l6.702-3.865c1.727-0.996,3.139-0.18,3.139,1.816v6.436c0.396-0.189,0.799-0.377,1.202-0.557v-5.879
		c0-1.996,1.408-2.813,3.136-1.816l6.7,3.865c0.492,0.287,0.828,0.627,1.039,0.982c1.092-0.104,2.2-0.158,3.315-0.158
		c1.115,0,2.209,0.055,3.296,0.158c0.211-0.355,0.544-0.695,1.039-0.982l6.698-3.865c1.723-0.996,3.137-0.18,3.137,1.816v5.873
		c0.405,0.174,0.807,0.359,1.202,0.553v-6.426c0-1.996,1.415-2.813,3.138-1.816l6.7,3.865c1.729,1.002,1.729,2.633,0,3.629
		l-5.578,3.219c0.369,0.252,0.732,0.51,1.089,0.777l5.089-2.943c1.727-0.992,3.137-0.18,3.137,1.811v7.734
		c0,0.592-0.135,1.064-0.355,1.434c1.256,1.779,2.35,3.68,3.258,5.682c0.433-0.014,0.92,0.105,1.44,0.406l6.696,3.867
		c1.724,0.996,1.724,2.625,0,3.633l-5.187,2.988c0.041,0.402,0.066,0.814,0.093,1.221l5.696-3.289
		c1.725-0.992,3.137-0.184,3.137,1.809V80.108z M224.896,63.155c0,1.992-1.412,2.805-3.142,1.807l-6.693-3.869
		c-1.728-0.994-1.728-2.621,0-3.621l6.693-3.867c1.73-1,3.142-0.184,3.142,1.813V63.155z M229.229,87.507l6.7,3.869
		c1.727,0.996,1.727,2.629,0,3.625l-6.7,3.865c-1.724,0.998-3.137,0.186-3.137-1.811v-7.73
		C226.093,87.327,227.506,86.513,229.229,87.507z M235.828,78.05l-6.698,3.867c-1.723,0.992-3.135,0.182-3.135-1.809v-7.742
		c0-1.992,1.412-2.801,3.135-1.809l6.698,3.867C237.558,75.421,237.558,77.056,235.828,78.05z"/>
	<path fill="#099143" d="M133.077,104.591l-2.571,1.484c1.681,2.848,3.59,5.535,5.711,8.047v-7.717
		C136.217,104.413,134.803,103.597,133.077,104.591z"/>
	<path fill="#FFE054" d="M136.217,63.155v-7.738c0-1.996-1.414-2.813-3.14-1.813l-6.696,3.867c-1.73,1-1.73,2.627,0,3.621
		l6.696,3.869C134.803,65.96,136.217,65.147,136.217,63.155z"/>
	<path fill="#005095" d="M221.759,70.558l-5.696,3.289c0.054,0.773,0.091,1.555,0.091,2.342c0,0.818-0.043,1.631-0.099,2.439
		l5.704,3.289c1.725,0.992,3.137,0.182,3.137-1.809v-7.742C224.896,70.374,223.484,69.565,221.759,70.558z"/>
	<path fill="#099143" d="M140.563,47.882l6.699-3.863c1.727-0.996,1.727-2.627,0-3.629l-6.699-3.865
		c-1.725-0.996-3.142-0.18-3.142,1.816v7.73C137.42,48.063,138.837,48.882,140.563,47.882z"/>
	<path fill="#008E99" d="M184.896,22.286l6.693-3.871c0.056-0.027,0.087-0.059,0.135-0.09c-3.237-0.59-6.566-0.916-9.969-0.945
		v3.096C181.755,22.468,183.168,23.284,184.896,22.286z"/>
	<path fill="#FFE054" d="M177.417,22.286c1.725,0.998,3.134,0.182,3.134-1.811V17.38c-3.397,0.031-6.723,0.359-9.958,0.951
		c0.042,0.027,0.076,0.057,0.121,0.084L177.417,22.286z"/>
	<path fill="#005095" d="M170.714,31.858c-1.721,0.998-1.721,2.627,0,3.625l6.703,3.867c1.725,0.998,3.134,0.182,3.134-1.814v-7.734
		c0-1.986-1.409-2.811-3.134-1.811L170.714,31.858z"/>
	<path fill="#086E95" d="M176.814,40.39l-6.7-3.865c-1.729-0.996-3.136-0.18-3.136,1.816v5.879
		c3.378-1.502,7.033-2.482,10.875-2.848C177.643,41.017,177.306,40.677,176.814,40.39z"/>
	<path fill="#005095" d="M136.215,46.071v-7.73c0-0.027-0.007-0.047-0.007-0.07c-2.133,2.531-4.055,5.234-5.746,8.104l2.615,1.51
		C134.803,48.882,136.215,48.063,136.215,46.071z"/>
	<path fill="#086E95" d="M132.474,52.548c1.729-0.99,1.729-2.623,0-3.619l-2.61-1.51c-1.611,2.861-2.991,5.867-4.106,9.006
		c0.006-0.002,0.011-0.002,0.02-0.008L132.474,52.548z"/>
	<path fill="#FFE054" d="M155.936,26.952l6.702,3.867c1.727,0.996,3.139,0.178,3.139-1.813v-7.738c0-0.744-0.197-1.324-0.536-1.705
		c-2.4,0.674-4.744,1.477-7.011,2.441l-2.293,1.322C154.212,24.323,154.212,25.956,155.936,26.952z"/>
	<path fill="#675DC5" d="M165.776,38.341c0-1.996-1.412-2.813-3.139-1.816l-6.702,3.865c-1.724,1.002-1.724,2.633,0,3.629
		l5.599,3.225c1.348-0.918,2.766-1.74,4.242-2.467V38.341z"/>
	<path fill="#352B7C" d="M170.115,30.819l6.7-3.867c1.728-0.996,1.728-2.629,0-3.625l-6.7-3.869
		c-1.729-0.994-3.136-0.182-3.136,1.811v7.738C166.979,30.997,168.386,31.815,170.115,30.819z"/>
	<path fill="#099143" d="M200.282,35.483l6.697,3.867c1.727,0.998,3.137,0.182,3.137-1.814v-7.734c0-1.986-1.411-2.811-3.137-1.811
		l-6.697,3.867C198.556,32.856,198.556,34.485,200.282,35.483z"/>
	<path fill="#099143" d="M185.503,26.952l6.698,3.867c1.723,0.996,3.137,0.178,3.137-1.813v-7.738c0-1.992-1.414-2.805-3.14-1.811
		l-6.695,3.869C183.775,24.323,183.775,25.956,185.503,26.952z"/>
	<path fill="#352B7C" d="M195.339,38.341c0-1.996-1.414-2.813-3.137-1.816l-6.698,3.865c-0.494,0.287-0.828,0.627-1.039,0.982
		c3.839,0.359,7.495,1.34,10.874,2.842V38.341z"/>
	<path fill="#675DC5" d="M196.541,29.007c0,1.99,1.415,2.809,3.138,1.813l6.7-3.867c1.729-0.996,1.729-2.629,0-3.625l-2.359-1.361
		c-2.245-0.947-4.565-1.744-6.94-2.41c-0.338,0.385-0.538,0.965-0.538,1.713V29.007z"/>
	<path fill="#675DC5" d="M229.13,64.962l6.705-3.869c1.724-0.994,1.724-2.621,0-3.621l-6.705-3.867
		c-1.723-1-3.135-0.184-3.135,1.813v7.738C225.995,65.147,227.407,65.96,229.13,64.962z"/>
	<path fill="#086E95" d="M229.831,52.563l6.699,3.869c0.023,0.014,0.045,0.021,0.067,0.033c-1.12-3.15-2.503-6.174-4.122-9.053
		l-2.645,1.525C228.105,49.933,228.105,51.567,229.831,52.563z"/>
	<path fill="#352B7C" d="M236.53,62.138l-6.699,3.867c-1.726,0.996-1.726,2.625,0,3.633l6.699,3.859
		c1.729,0.994,3.142,0.182,3.142-1.814V69.97c-0.296-2.803-0.79-5.555-1.465-8.225C237.721,61.669,237.148,61.782,236.53,62.138z"/>
	<path fill="#FFE054" d="M221.753,53.604l-6.693,3.867c-1.728,1-1.728,2.627,0,3.621l6.693,3.869
		c1.73,0.998,3.142,0.186,3.142-1.807v-7.738C224.896,53.421,223.484,52.604,221.753,53.604z"/>
	<path fill="#675DC5" d="M209.762,56.05c0.22-0.369,0.355-0.842,0.355-1.434v-7.734c0-1.99-1.411-2.803-3.137-1.811l-5.089,2.943
		C204.927,50.247,207.585,52.968,209.762,56.05z"/>
	<path fill="#352B7C" d="M214.46,56.433l6.696-3.869c1.724-0.996,1.724-2.631,0-3.625l-6.696-3.867
		c-1.729-0.992-3.14-0.18-3.14,1.811v7.734C211.32,56.616,212.731,57.429,214.46,56.433z"/>
	<path fill="#FFE054" d="M211.313,29.802v7.734c0,1.996,1.413,2.813,3.143,1.814l6.699-3.867c0.633-0.369,1.027-0.814,1.195-1.291
		c-1.808-1.775-3.728-3.432-5.753-4.965l-2.141-1.236C212.726,26.991,211.313,27.815,211.313,29.802z"/>
	<path fill="#008E99" d="M226.093,46.071c0,1.992,1.413,2.811,3.137,1.811l2.641-1.521c-1.695-2.873-3.625-5.594-5.769-8.125
		c0,0.035-0.009,0.068-0.009,0.105V46.071z"/>
	<path fill="#FFE054" d="M133.077,87.507l-6.696,3.869c-1.73,0.996-1.73,2.629,0,3.625l6.696,3.865
		c1.727,0.998,3.14,0.186,3.14-1.811v-7.73C136.217,87.327,134.803,86.513,133.077,87.507z"/>
	<path fill="#B2E0F8" d="M138.554,104.298c-0.685,0.27-1.134,0.992-1.134,2.107l0,0C137.42,105.296,137.87,104.567,138.554,104.298z
		"/>
	<path fill="#B2E0F8" d="M148.474,109.782c-0.16-0.49-0.565-0.953-1.212-1.326l-4.688-2.703l4.688,2.705
		C147.908,108.833,148.313,109.292,148.474,109.782z"/>
	<path fill="#008E99" d="M184.896,130.185c-1.728-0.994-3.141-0.178-3.141,1.818v3c3.362-0.033,6.656-0.354,9.864-0.93
		c-0.012-0.008-0.015-0.014-0.031-0.016L184.896,130.185z"/>
	<path fill="#FFE054" d="M177.417,130.185l-6.703,3.873c-0.004,0.002-0.008,0.008-0.017,0.014c3.205,0.574,6.492,0.896,9.854,0.932
		v-3C180.551,130.007,179.142,129.19,177.417,130.185z"/>
	<path fill="#005095" d="M177.417,113.122l-6.703,3.871c-1.721,0.994-1.721,2.629,0,3.621l6.703,3.869
		c1.725,0.994,3.134,0.184,3.134-1.814v-7.736C180.551,112.942,179.142,112.126,177.417,113.122z"/>
	<path fill="#086E95" d="M166.979,114.136c0,1.998,1.408,2.811,3.136,1.813l6.7-3.863c0.53-0.309,0.88-0.684,1.084-1.074
		c-3.857-0.357-7.53-1.344-10.92-2.852V114.136z"/>
	<path fill="#FFE054" d="M165.776,123.47c0-1.996-1.412-2.809-3.139-1.813l-6.702,3.867c-1.724,0.994-1.724,2.625,0,3.621
		l1.541,0.893c2.517,1.109,5.128,2.045,7.815,2.795c0.304-0.383,0.484-0.928,0.484-1.631V123.47z"/>
	<path fill="#675DC5" d="M155.936,108.458c-1.724,0.996-1.724,2.629,0,3.627l6.702,3.863c1.727,0.998,3.139,0.186,3.139-1.813
		v-6.533c-1.448-0.713-2.844-1.516-4.174-2.416L155.936,108.458z"/>
	<path fill="#352B7C" d="M176.814,125.524l-6.7-3.867c-1.729-0.996-3.136-0.184-3.136,1.813v7.732c0,1.996,1.408,2.811,3.136,1.813
		l6.7-3.869C178.542,128.149,178.542,126.519,176.814,125.524z"/>
	<path fill="#099143" d="M206.979,113.122l-6.697,3.871c-1.726,0.994-1.726,2.629,0,3.621l6.697,3.869
		c1.727,0.994,3.137,0.184,3.137-1.814v-7.736C210.117,112.942,208.706,112.126,206.979,113.122z"/>
	<path fill="#099143" d="M192.202,121.657l-6.698,3.867c-1.729,0.994-1.729,2.625,0,3.621l6.695,3.869
		c1.726,0.998,3.14,0.184,3.14-1.813v-7.732C195.339,121.474,193.925,120.661,192.202,121.657z"/>
	<path fill="#008E99" d="M185.503,112.085l6.698,3.863c1.723,0.998,3.137,0.186,3.137-1.813v-5.965
		c-3.39,1.506-7.064,2.492-10.92,2.842C184.623,111.401,184.97,111.776,185.503,112.085z"/>
	<path fill="#675DC5" d="M206.379,125.524l-6.7-3.867c-1.724-0.996-3.138-0.184-3.138,1.813v7.732c0,0.703,0.186,1.256,0.489,1.637
		c2.649-0.74,5.231-1.66,7.715-2.75l1.634-0.943C208.107,128.149,208.107,126.519,206.379,125.524z"/>
	<path fill="#675DC5" d="M226.093,89.325v7.73c0,1.996,1.413,2.809,3.137,1.811l6.7-3.865c1.727-0.996,1.727-2.629,0-3.625
		l-6.7-3.869C227.506,86.513,226.093,87.327,226.093,89.325z"/>
	<path fill="#086E95" d="M229.831,99.911c-1.726,0.996-1.726,2.625,0,3.623l2.604,1.508c1.617-2.865,3.003-5.875,4.125-9.012
		c-0.007,0.006-0.019,0.006-0.03,0.012L229.831,99.911z"/>
	<path fill="#086E95" d="M236.53,78.974l-6.699,3.867c-1.726,0.998-1.726,2.629,0,3.627l6.699,3.871
		c0.611,0.346,1.173,0.463,1.655,0.393c0.688-2.705,1.186-5.482,1.487-8.32v-1.625C239.671,78.796,238.259,77.983,236.53,78.974z"/>
	<path fill="#FFE054" d="M221.753,87.507l-6.693,3.869c-1.728,0.996-1.728,2.629,0,3.625l6.693,3.865
		c1.73,0.998,3.142,0.186,3.142-1.811v-7.73C224.896,87.327,223.484,86.513,221.753,87.507z"/>
	<path fill="#675DC5" d="M201.817,104.417l5.162,2.986c1.727,0.996,3.137,0.182,3.137-1.814v-7.732c0-0.621-0.146-1.109-0.387-1.484
		C207.541,99.464,204.869,102.185,201.817,104.417z"/>
	<path fill="#352B7C" d="M221.156,103.534c1.724-0.998,1.724-2.627,0-3.623l-6.696-3.869c-1.729-0.998-3.14-0.182-3.14,1.814v7.732
		c0,1.996,1.412,2.811,3.14,1.814L221.156,103.534z"/>
	<path fill="#FFE054" d="M221.155,116.993l-6.699-3.871c-1.73-0.996-3.143-0.18-3.143,1.811v7.736c0,1.998,1.413,2.809,3.143,1.814
		l1.569-0.908c2.227-1.641,4.322-3.43,6.292-5.355C222.136,117.771,221.759,117.341,221.155,116.993z"/>
	<path fill="#B2E0F8" d="M150.911,114.933v7.736c0,1.463-0.759,2.281-1.84,2.227c1.133,0.104,1.933-0.725,1.933-2.227v-7.736
		c0-1.506-0.808-2.336-1.946-2.227C150.149,112.647,150.911,113.466,150.911,114.933z"/>
	<path fill="#B2E0F8" d="M162.04,116.993l-6.702-3.871c-0.46-0.268-0.897-0.398-1.295-0.416c0.372,0.037,0.783,0.172,1.211,0.416
		l6.7,3.869c1.723,0.996,1.723,2.631,0,3.629l-6.7,3.865c-0.427,0.242-0.831,0.373-1.2,0.41c0.394-0.021,0.829-0.152,1.284-0.412
		l6.702-3.869C163.763,119.622,163.763,117.987,162.04,116.993z"/>
	<path fill="#008E99" d="M226.093,106.405v7.73l0.001,0.014c2.129-2.51,4.049-5.205,5.736-8.059l-2.601-1.5
		C227.506,103.597,226.093,104.407,226.093,106.405z"/>
	<path fill="#12CFE3" d="M125.777,73.497l6.696-3.859c1.729-1.008,1.729-2.637,0-3.633l-6.696-3.867
		c-0.603-0.35-1.16-0.463-1.642-0.4c-0.698,2.775-1.203,5.617-1.498,8.529v1.416C122.638,73.679,124.053,74.491,125.777,73.497z"/>
	<path fill="#35BAD2" d="M146.273,73.907l-5.805-3.35c-1.722-0.992-3.137-0.184-3.137,1.809v7.742c0,1.99,1.415,2.801,3.137,1.809
		l5.813-3.355c-0.053-0.783-0.09-1.576-0.09-2.373C146.191,75.421,146.229,74.663,146.273,73.907z"/>
	<path fill="#12CFE3" d="M235.828,74.425l-6.698-3.867c-1.723-0.992-3.135-0.184-3.135,1.809v7.742c0,1.99,1.412,2.801,3.135,1.809
		l6.698-3.867C237.558,77.056,237.558,75.421,235.828,74.425z"/>
	<path fill="#12CFE3" d="M133.089,70.558l-6.7,3.867c-1.728,0.996-1.728,2.631,0,3.625l6.7,3.867
		c1.721,0.992,3.135,0.182,3.135-1.809v-7.742C136.225,70.374,134.811,69.565,133.089,70.558z"/>
	<path fill="#12CFE3" d="M132.474,99.911l-6.684-3.859c1.116,3.121,2.499,6.117,4.107,8.977l2.576-1.49
		C134.202,102.536,134.202,100.907,132.474,99.911z"/>
	<path fill="#12CFE3" d="M140.563,64.962l6.699-3.869c1.727-0.994,1.727-2.621,0-3.621l-6.699-3.867
		c-1.725-1-3.142-0.184-3.142,1.813v7.738C137.42,65.147,138.837,65.96,140.563,64.962z"/>
	<path fill="#12CFE3" d="M141.163,48.938c-1.726,0.994-1.726,2.629,0,3.625l6.694,3.869c1.733,0.996,3.146,0.184,3.146-1.816v-7.734
		c0-1.99-1.413-2.803-3.146-1.811L141.163,48.938z"/>
	<path fill="#12CFE3" d="M160.442,48.019l-5.099-2.947c-1.726-0.992-3.141-0.18-3.141,1.811v7.734c0,0.604,0.141,1.082,0.369,1.451
		C154.744,52.976,157.402,50.257,160.442,48.019z"/>
	<path fill="#12CFE3" d="M184.9,39.351l6.697-3.867c1.728-0.998,1.728-2.627,0-3.625l-6.697-3.867c-1.727-1-3.137-0.176-3.137,1.811
		v7.734C181.763,39.532,183.174,40.349,184.9,39.351z"/>
	<path fill="#12CFE3" d="M206.379,44.019c1.729-0.996,1.729-2.627,0-3.629l-6.7-3.865c-1.724-0.996-3.138-0.18-3.138,1.816v6.426
		c1.48,0.727,2.905,1.549,4.26,2.471L206.379,44.019z"/>
	<path fill="#12CFE3" d="M221.156,69.638c1.724-1.008,1.724-2.637,0-3.633l-6.696-3.867c-0.521-0.301-1.007-0.42-1.44-0.406
		c1.537,3.383,2.56,7.043,2.95,10.895L221.156,69.638z"/>
	<path fill="#12CFE3" d="M140.569,35.483l6.7,3.867c1.726,0.998,3.137,0.182,3.137-1.814v-7.734c0-1.777-1.127-2.607-2.599-2.057
		c-2.949,2.033-5.708,4.324-8.233,6.844C139.79,34.915,140.118,35.224,140.569,35.483z"/>
	<path fill="#12CFE3" d="M154.744,39.351l6.696-3.867c1.725-0.998,1.725-2.627,0-3.625l-6.696-3.867
		c-1.728-1-3.145-0.176-3.145,1.811v7.734C151.599,39.532,153.016,40.349,154.744,39.351z"/>
	<path fill="#12CFE3" d="M215.054,44.019l6.698,3.863c1.728,1,3.141,0.182,3.141-1.811v-7.73c0-1.996-1.413-2.813-3.141-1.816
		l-6.698,3.865C213.329,41.392,213.329,43.022,215.054,44.019z"/>
	<path fill="#12CFE3" d="M125.777,90.339l6.696-3.871c1.729-0.998,1.729-2.629,0-3.627l-6.696-3.867
		c-1.724-0.99-3.139-0.178-3.139,1.813v1.33c0.294,2.941,0.809,5.82,1.52,8.617C124.634,90.794,125.182,90.679,125.777,90.339z"/>
	<path fill="#12CFE3" d="M140.563,98.866l6.699-3.865c1.727-0.996,1.727-2.629,0-3.625l-6.699-3.869
		c-1.725-0.994-3.142-0.18-3.142,1.818v7.73C137.42,99.052,138.837,99.864,140.563,98.866z"/>
	<path fill="#12CFE3" d="M147.857,96.042l-6.694,3.869c-1.726,0.996-1.726,2.625,0,3.623l6.694,3.869
		c1.733,0.996,3.146,0.182,3.146-1.814v-7.732C151.003,95.86,149.59,95.044,147.857,96.042z"/>
	<path fill="#12CFE3" d="M152.604,96.36c-0.251,0.371-0.401,0.867-0.401,1.496v7.732c0,1.996,1.415,2.811,3.141,1.814l5.174-2.99
		C157.462,102.177,154.79,99.454,152.604,96.36z"/>
	<path fill="#12CFE3" d="M191.597,120.614c1.728-0.992,1.728-2.627,0-3.621l-6.697-3.871c-1.727-0.996-3.137-0.18-3.137,1.811v7.736
		c0,1.998,1.411,2.809,3.137,1.814L191.597,120.614z"/>
	<path fill="#12CFE3" d="M196.541,114.136c0,1.998,1.415,2.811,3.138,1.813l6.7-3.863c1.729-0.998,1.729-2.631,0-3.629l-5.651-3.262
		c-1.335,0.902-2.732,1.707-4.187,2.422V114.136z"/>
	<path fill="#12CFE3" d="M214.46,90.339l6.696-3.871c1.724-0.998,1.724-2.629,0-3.627l-5.195-3.002
		c-0.4,3.857-1.436,7.523-2.983,10.902C213.422,90.765,213.921,90.646,214.46,90.339z"/>
	<path fill="#12CFE3" d="M221.752,104.591l-6.698,3.867c-1.725,0.996-1.725,2.629,0,3.627l6.698,3.863
		c1.728,0.998,3.141,0.186,3.141-1.813v-7.73C224.893,104.407,223.479,103.597,221.752,104.591z"/>
	<path fill="#12CFE3" d="M147.773,62.138l-6.697,3.867c-1.729,0.996-1.729,2.625,0,3.633l5.292,3.045
		c0.385-3.873,1.407-7.553,2.95-10.945C148.862,61.7,148.335,61.815,147.773,62.138z"/>
	<path fill="#12CFE3" d="M141.076,82.841c-1.729,0.998-1.729,2.629,0,3.627l6.697,3.871c0.58,0.33,1.117,0.447,1.587,0.395
		c-1.553-3.393-2.589-7.076-2.986-10.949L141.076,82.841z"/>
	<path fill="#35BAD2" d="M147.261,112.085l-6.699,3.863L147.261,112.085c1.081-0.627,1.482-1.494,1.212-2.303
		C148.744,110.591,148.339,111.458,147.261,112.085z"/>
	<path fill="#35BAD2" d="M137.42,114.136L137.42,114.136c0,1.998,1.417,2.811,3.142,1.813
		C138.837,116.946,137.42,116.134,137.42,114.136z"/>
	<path fill="#35BAD2" d="M140.563,104.591l2.011,1.162L140.563,104.591c-0.763-0.441-1.459-0.508-2.008-0.293
		C139.103,104.083,139.8,104.149,140.563,104.591z"/>
	<path fill="#12CFE3" d="M148.474,109.782c-0.16-0.49-0.565-0.949-1.212-1.324l-4.688-2.705l-2.011-1.162
		c-0.763-0.441-1.459-0.508-2.008-0.293c-0.685,0.27-1.134,0.998-1.134,2.107v7.73c0,1.998,1.417,2.811,3.142,1.813l6.699-3.863
		C148.339,111.458,148.744,110.591,148.474,109.782z"/>
	<path fill="#35BAD2" d="M152.2,122.669v-7.736c0-1.455,0.759-2.277,1.843-2.227c-1.129-0.104-1.928,0.729-1.928,2.227v7.736
		c0,1.508,0.803,2.334,1.939,2.227C152.964,124.956,152.2,124.132,152.2,122.669z"/>
	<path fill="#12CFE3" d="M161.954,120.62c1.723-0.998,1.723-2.633,0-3.629l-6.7-3.869c-0.428-0.244-0.839-0.379-1.211-0.416
		c-1.084-0.051-1.843,0.771-1.843,2.227v7.736c0,1.463,0.764,2.287,1.854,2.227c0.369-0.037,0.772-0.168,1.2-0.41L161.954,120.62z"
		/>
	<path fill="#35BAD2" d="M149.071,124.896c-0.373-0.037-0.777-0.168-1.204-0.412l-1.465-0.85c0.133,0.102,0.271,0.195,0.407,0.291
		l0.964,0.561C148.24,124.749,148.672,124.878,149.071,124.896z"/>
	<path fill="#35BAD2" d="M141.166,116.993l6.701-3.871c0.42-0.242,0.825-0.377,1.19-0.416c-0.395,0.027-0.824,0.15-1.284,0.416
		l-6.697,3.869c-0.57,0.33-0.937,0.727-1.129,1.15c0.018,0.021,0.042,0.041,0.062,0.063
		C140.191,117.761,140.569,117.339,141.166,116.993z"/>
	<path fill="#12CFE3" d="M149.071,124.896c1.081,0.055,1.84-0.764,1.84-2.227v-7.736c0-1.467-0.762-2.285-1.854-2.227
		c-0.366,0.039-0.77,0.174-1.19,0.416l-6.701,3.871c-0.596,0.346-0.975,0.768-1.157,1.211c1.996,1.957,4.131,3.773,6.393,5.43
		l1.465,0.85C148.294,124.728,148.698,124.858,149.071,124.896z"/>
</g>
</svg>
